<svg width="34" height="34" viewBox="0 0 34 34" fill="none" xmlns="http://www.w3.org/2000/svg">
<path d="M17.0002 22.6663C20.1297 22.6663 22.6668 20.1292 22.6668 16.9997C22.6668 13.8701 20.1297 11.333 17.0002 11.333C13.8705 11.333 11.3335 13.8701 11.3335 16.9997C11.3335 20.1292 13.8705 22.6663 17.0002 22.6663Z" stroke="white" stroke-width="1.5" stroke-linecap="round" stroke-linejoin="round"/>
<path d="M4.25 22.6667V11.3333C4.25 7.42132 7.42132 4.25 11.3333 4.25H22.6667C26.5786 4.25 29.75 7.42132 29.75 11.3333V22.6667C29.75 26.5786 26.5786 29.75 22.6667 29.75H11.3333C7.42132 29.75 4.25 26.5786 4.25 22.6667Z" stroke="white" stroke-width="1.5"/>
<path d="M24.7915 9.22064L24.8038 9.20703" stroke="white" stroke-width="1.5" stroke-linecap="round" stroke-linejoin="round"/>
</svg>
